HIERARCHY
ROOT Hips
{
    OFFSET 0.000000 0.000000 0.000000
    CHANNELS 6 Xposition Yposition Zposition Zrotation Xrotation Yrotation
    JOINT Spine
    {
        OFFSET -0.000000 14.517291 0.000000
        CHANNELS 3 Zrotation Xrotation Yrotation
        JOINT Spine1
        {
            OFFSET -0.000000 37.558300 0.000000
            CHANNELS 3 Zrotation Xrotation Yrotation
            JOINT Neck
            {
                OFFSET -0.000000 37.404057 3.400369
                CHANNELS 3 Zrotation Xrotation Yrotation
                JOINT Head
                {
                    OFFSET -0.000000 24.785618 -3.540803
                    CHANNELS 3 Zrotation Xrotation Yrotation
                    End Site
                    {
                        OFFSET -0.000000 35.408028 0.000000
                    }
                }
            }
            JOINT LeftShoulder
            {
                OFFSET 6.992933 33.973492 -0.192664
                CHANNELS 3 Zrotation Xrotation Yrotation
                JOINT LeftArm
                {
                    OFFSET 21.527611 0.000000 0.000000
                    CHANNELS 3 Zrotation Xrotation Yrotation
                    JOINT LeftForeArm
                    {
                        OFFSET 56.353916 0.000000 0.000000
                        CHANNELS 3 Zrotation Xrotation Yrotation
                        JOINT LeftHand
                        {
                            OFFSET 47.774071 0.000000 0.000000
                            CHANNELS 3 Zrotation Xrotation Yrotation
                            End Site
                            {
                                OFFSET 26.556021 0.000000 0.000000
                            }
                        }
                    }
                }
            }
            JOINT RightShoulder
            {
                OFFSET -7.065357 33.973492 -0.192664
                CHANNELS 3 Zrotation Xrotation Yrotation
                JOINT RightArm
                {
                    OFFSET -21.527611 0.000000 0.000000
                    CHANNELS 3 Zrotation Xrotation Yrotation
                    JOINT RightForeArm
                    {
                        OFFSET -56.353916 0.000000 0.000000
                        CHANNELS 3 Zrotation Xrotation Yrotation
                        JOINT RightHand
                        {
                            OFFSET -47.774071 0.000000 0.000000
                            CHANNELS 3 Zrotation Xrotation Yrotation
                            End Site
                            {
                                OFFSET -26.556021 0.000000 0.000000
                            }
                        }
                    }
                }
            }
        }
    }
    JOINT LeftUpLeg
    {
        OFFSET 17.704014 0.000000 0.000000
        CHANNELS 3 Zrotation Xrotation Yrotation
        JOINT LeftLeg
        {
            OFFSET -0.000000 -81.181816 0.000000
            CHANNELS 3 Zrotation Xrotation Yrotation
            JOINT LeftFoot
            {
                OFFSET -0.000000 -62.821102 0.000000
                CHANNELS 3 Zrotation Xrotation Yrotation
                JOINT LeftToeBase
                {
                    OFFSET -0.000000 -11.507608 26.556021
                    CHANNELS 3 Zrotation Xrotation Yrotation
                    End Site
                    {
                        OFFSET -0.000000 0.000000 7.081605
                    }
                }
            }
        }
    }
    JOINT RightUpLeg
    {
        OFFSET -17.704014 0.000000 0.000000
        CHANNELS 3 Zrotation Xrotation Yrotation
        JOINT RightLeg
        {
            OFFSET -0.000000 -81.181816 0.000000
            CHANNELS 3 Zrotation Xrotation Yrotation
            JOINT RightFoot
            {
                OFFSET -0.000000 -62.821102 0.000000
                CHANNELS 3 Zrotation Xrotation Yrotation
                JOINT RightToeBase
                {
                    OFFSET -0.000000 -11.507608 26.556021
                    CHANNELS 3 Zrotation Xrotation Yrotation
                    End Site
                    {
                        OFFSET -0.000000 0.000000 7.081605
                    }
                }
            }
        }
    }
}
MOTION
Frames:    12
Frame Time:    0.008333
31.396109    152.774460    -31.052750    -0.507759    3.221214    -54.050632    0.305712    1.351991    0.377461    6.068297    -0.704157    0.163292    20.850050    0.358495    18.386402    -14.561272    5.746264    14.779510    15.549527    -4.073264    -19.715380    -5.766459    -22.092148    -39.258980    12.187324    -37.258327    -13.295965    -26.509510    -26.385792    -45.671925    -5.637234    2.332595    -0.536798    34.882103    5.405518    78.941544    11.420472    2.035600    107.479568    5.229495    -12.654993    20.007608    27.362152    -24.602777    12.243019    -22.215651    35.688278    0.086566    -1.243907    -9.536931    38.844254    0.000000    0.000000    0.000000    -26.113867    3.222728    4.996986    4.884400    19.171907    -0.929257    23.527540    4.338630    -26.575523    0.000000    0.000000    0.000000    
31.722498    153.331207    -30.069679    -0.451025    3.380492    -54.159737    0.399633    1.288166    0.418089    6.105086    -0.788946    0.181922    21.063869    0.327072    18.420334    -14.696938    5.955348    14.791632    15.630491    -4.004252    -19.684759    -5.752808    -21.846247    -39.343224    12.290987    -37.456402    -13.270297    -26.444063    -26.636414    -45.632839    -5.504841    2.341538    -0.577916    34.810783    5.483857    78.920769    11.484688    2.074172    107.470695    5.252002    -12.701330    19.953465    26.960957    -24.400833    12.308579    -21.947651    35.362492    -0.021861    -1.198786    -9.508734    38.832451    0.000000    0.000000    0.000000    -26.065138    2.863999    5.050279    4.779196    18.967831    -0.909958    23.351856    5.991404    -27.317747    0.000000    0.000000    0.000000    
32.049309    153.877731    -29.118404    -0.387962    3.537414    -54.253300    0.475843    1.223709    0.481743    6.197258    -0.881592    0.209127    21.150389    0.234783    18.406683    -14.756491    6.213356    14.774762    15.619987    -3.967313    -19.733591    -5.782059    -21.676252    -39.415005    12.343195    -37.606056    -13.258764    -26.341999    -26.847164    -45.609795    -5.410246    2.270495    -0.637158    34.788620    5.535498    78.870171    11.618230    2.278842    107.400726    5.178087    -12.679708    19.891577    26.565184    -24.207325    12.402472    -21.620823    35.033131    -0.277698    -1.138034    -9.439886    38.839966    0.000000    0.000000    0.000000    -25.993143    2.487482    5.121843    4.796415    18.826366    -1.008550    23.155718    7.330575    -28.105509    0.000000    0.000000    0.000000    
32.363407    154.402740    -28.180588    -0.312049    3.674120    -54.327713    0.610481    1.121466    0.467061    6.130693    -0.945196    0.207662    21.357054    0.274123    18.453087    -14.912936    6.387633    14.809072    15.684628    -3.918281    -19.738750    -5.797963    -21.425718    -39.438946    12.468844    -37.788292    -13.220009    -26.268696    -27.087896    -45.546608    -5.232203    2.256788    -0.525879    34.734535    5.513849    78.792656    11.705470    2.412342    107.324783    5.154041    -12.648389    19.944330    26.137972    -24.019474    12.510870    -21.291206    34.704849    -0.469731    -1.063987    -9.395799    38.797462    0.000000    0.000000    0.000000    -25.934965    2.160020    5.133513    4.875324    18.670595    -1.174855    23.138771    8.199181    -28.877964    0.000000    0.000000    0.000000    
32.683952    154.910309    -27.275579    -0.234161    3.775275    -54.450947    0.677036    1.110356    0.568706    6.136890    -1.078321    0.248912    21.529438    0.252070    18.472870    -15.110447    6.562654    14.805994    15.697258    -3.863561    -19.778145    -5.876783    -21.333275    -39.547825    12.515824    -37.894855    -13.202704    -26.220411    -27.235939    -45.497986    -5.151908    2.207592    -0.553847    34.668564    5.521065    78.756493    11.798180    2.535257    107.284843    5.012046    -12.666192    19.985493    25.708101    -23.777853    12.633677    -20.983921    34.334087    -0.631817    -1.006640    -9.362307    38.731144    0.000000    0.000000    0.000000    -25.883038    1.839102    5.156389    5.037219    18.503860    -1.438130    22.999626    8.759801    -29.688187    0.000000    0.000000    0.000000    
32.986305    155.395981    -26.386181    -0.146693    3.851810    -54.533054    0.735830    1.053909    0.625188    6.126962    -1.134744    0.270749    21.604275    0.242125    18.467461    -15.238010    6.658084    14.789251    15.682035    -3.808378    -19.819044    -5.878080    -21.193790    -39.612415    12.629808    -38.093880    -13.144736    -26.182955    -27.479027    -45.457214    -5.082732    2.157870    -0.549784    34.626816    5.475825    78.758789    11.799588    2.575950    107.226913    5.117850    -12.595474    19.934843    25.241127    -23.541153    12.731412    -20.668913    33.956722    -0.839377    -0.941151    -9.349812    38.681198    0.000000    0.000000    0.000000    -25.814789    1.478419    5.020862    5.145979    18.570084    -1.672111    22.786514    9.110069    -30.281820    0.000000    0.000000    0.000000    
33.297047    155.862396    -25.522703    -0.066667    3.898499    -54.626957    0.772353    1.062728    0.703505    6.168787    -1.312263    0.306966    21.560730    0.361715    18.425945    -15.306361    6.670355    14.771831    15.563542    -3.691539    -19.944328    -5.938100    -21.213251    -39.662872    12.623538    -38.122688    -13.125922    -26.136435    -27.536827    -45.439053    -5.132431    2.189059    -0.455770    34.600620    5.427210    78.704796    11.744635    2.547962    107.154007    5.181345    -12.511592    20.028744    24.754629    -23.305309    12.794188    -20.343008    33.606991    -1.017926    -0.938649    -9.371554    38.636940    0.000000    0.000000    0.000000    -25.729795    1.102963    4.812002    5.259054    18.686907    -1.949667    22.198290    9.651034    -30.873774    0.000000    0.000000    0.000000    
33.589989    156.293869    -24.697470    0.010562    3.957733    -54.695450    0.854003    1.049346    0.765946    6.123497    -1.381313    0.331210    21.612463    0.358908    18.443174    -15.445246    6.690820    14.772997    15.523664    -3.701720    -19.995304    -6.063392    -21.227304    -39.749439    12.628862    -38.143444    -13.105180    -26.074213    -27.589033    -45.427792    -5.136702    2.090041    -0.441887    34.596130    5.419084    78.688087    11.698822    2.562113    107.113472    5.180949    -12.422584    20.053959    24.310432    -23.083002    12.820830    -20.077408    33.235428    -1.140835    -1.036122    -9.550422    38.660637    0.000000    0.000000    0.000000    -25.604378    0.757206    4.452404    5.357012    18.798090    -2.146586    21.197115    10.349080    -31.350636    0.000000    0.000000    0.000000    
33.872158    156.716080    -23.886620    0.070645    3.988233    -54.762413    0.948677    1.068938    0.828816    6.031085    -1.425808    0.353663    21.622244    0.277387    18.466759    -15.497288    6.750498    14.784220    15.541626    -3.656585    -19.949778    -6.216174    -21.321611    -39.927139    12.642906    -38.146523    -13.073827    -26.074711    -27.592815    -45.432598    -5.130599    2.059858    -0.445672    34.478546    5.365095    78.747757    11.615044    2.428998    107.104713    5.249041    -12.422798    20.084034    23.844883    -22.834595    12.802546    -19.812901    32.850986    -1.232457    -1.059190    -9.606408    38.606552    0.000000    0.000000    0.000000    -25.462669    0.477349    4.026843    5.372887    19.017376    -2.265319    20.254402    10.319122    -30.982641    0.000000    0.000000    0.000000    
34.138004    157.104736    -23.102798    0.125522    4.000827    -54.833164    1.015648    1.099599    0.918403    5.971327    -1.472217    0.385468    21.581089    0.217459    18.448824    -15.547268    6.708751    14.750149    15.489986    -3.618047    -19.978802    -6.314188    -21.454098    -40.038891    12.601735    -38.215527    -13.091569    -26.126478    -27.674355    -45.343338    -5.202142    1.954635    -0.471658    34.459412    5.400031    78.760071    11.549651    2.330396    107.122879    5.277441    -12.429339    20.104481    23.389385    -22.567106    12.789364    -19.609755    32.468067    -1.249341    -1.023984    -9.688973    38.536659    0.000000    0.000000    0.000000    -25.291054    0.204276    3.446111    5.272610    19.127655    -2.303799    19.296764    10.115078    -29.327269    0.000000    0.000000    0.000000    
34.386955    157.463211    -22.341631    0.176539    4.031257    -54.863503    1.123256    1.094564    0.950607    5.892842    -1.545436    0.399424    21.574171    0.330029    18.441557    -15.682652    6.592265    14.738522    15.398868    -3.518318    -20.072353    -6.391015    -21.673471    -40.059887    12.485494    -38.080029    -13.117969    -26.072592    -27.545351    -45.371914    -5.319026    1.959018    -0.368105    34.498505    5.336562    78.737762    11.524763    2.265893    107.101852    5.286507    -12.449590    20.135824    22.967962    -22.342045    12.733275    -19.407673    32.120903    -1.315234    -0.931386    -9.752911    38.464096    0.000000    0.000000    0.000000    -25.082874    -0.029318    2.782819    5.173849    19.077829    -2.208104    18.667879    9.776075    -27.262344    0.000000    0.000000    0.000000    
34.620338    157.796265    -21.620829    0.218188    4.061312    -54.874531    1.175615    1.116952    1.019536    5.878946    -1.519899    0.421137    21.453964    0.080979    18.447504    -15.623961    6.638294    14.725691    15.369725    -3.608302    -20.025791    -6.529410    -21.726528    -40.205124    12.471222    -37.975224    -13.118979    -26.039204    -27.447067    -45.350449    -5.448005    1.851637    -0.515800    34.360695    5.409186    78.870430    11.405280    1.951757    107.181160    5.312055    -12.612784    20.111067    22.576509    -22.122885    12.634112    -19.254230    31.762636    -1.347890    -0.917391    -9.838908    38.420334    0.000000    0.000000    0.000000    -24.836828    -0.230951    2.097687    5.053375    19.010006    -2.110258    18.569626    9.208552    -25.319340    0.000000    0.000000    0.000000    
